# Blender 3.6.4
# www.blender.org
mtllib yn.mtl
o Cube
v 0.013688 0.000000 -0.003817
v 0.013688 0.089581 -0.003817
v 0.013688 0.000000 -1.006135
v 0.013688 0.089581 -1.006135
v 0.991328 0.000000 -0.003817
v 0.991328 0.089581 -0.003817
v 0.991328 0.000000 -1.006135
v 0.991328 0.089581 -1.006135
vn -1.0000 -0.0000 -0.0000
vn -0.0000 -0.0000 -1.0000
vn 1.0000 -0.0000 -0.0000
vn -0.0000 -0.0000 1.0000
vn -0.0000 -1.0000 -0.0000
vn -0.0000 1.0000 -0.0000
vt 0.490500 0.409505
vt 0.529146 0.409763
vt 0.528061 0.698620
vt 0.489415 0.698362
vt 0.369692 0.697457
vt 0.331047 0.697778
vt 0.328423 0.556103
vt 0.367068 0.555782
vt 0.531609 0.696774
vt 0.492963 0.696625
vt 0.493582 0.410084
vt 0.532228 0.410233
vt 0.961196 0.000158
vt 0.999842 0.000158
vt 0.999842 0.562505
vt 0.961196 0.562505
vt 0.542941 0.697037
vt 0.330704 0.699250
vt 0.326383 0.415113
vt 0.541516 0.407529
vt 0.552879 0.698401
vt 0.312678 0.698401
vt 0.315654 0.410237
vt 0.553871 0.411559
s 0
usemtl Material.001
f 1/1/1 2/2/1 4/3/1 3/4/1
f 3/5/2 4/6/2 8/7/2 7/8/2
f 7/9/3 8/10/3 6/11/3 5/12/3
f 5/13/4 6/14/4 2/15/4 1/16/4
f 3/17/5 7/18/5 5/19/5 1/20/5
f 8/21/6 4/22/6 2/23/6 6/24/6
