# Blender v3.6.4 OBJ File: 'Y_N.blend'
# www.blender.org
mtllib Y_N.mtl
o Cube
v 1.000000 1.989160 -1.000000
v 1.000000 -0.010840 -1.000000
v 1.000000 1.989160 1.000000
v 1.000000 -0.010840 1.000000
v -1.000000 1.989160 -1.000000
v -1.000000 -0.010840 -1.000000
v -1.000000 1.989160 1.000000
v -1.000000 -0.010840 1.000000
vt 0.722618 0.537220
vt 0.721043 0.731563
vt 0.578672 0.731563
vt 0.580247 0.537220
vt 0.544597 0.543262
vt 0.545796 0.733398
vt 0.401856 0.735012
vt 0.403807 0.544841
vt 0.363073 0.751235
vt 0.362417 0.939190
vt 0.227961 0.938614
vt 0.230143 0.750593
vt 0.717144 0.751639
vt 0.719493 0.943541
vt 0.578428 0.942410
vt 0.577680 0.752573
vt 0.192261 0.757567
vt 0.189160 0.939007
vt 0.044933 0.941273
vt 0.044539 0.757693
vt 0.190042 0.544612
vt 0.188675 0.734442
vt 0.050823 0.732527
vt 0.050648 0.544840
vn 0.0000 1.0000 0.0000
vn 0.0000 0.0000 1.0000
vn -1.0000 0.0000 0.0000
vn 0.0000 -1.0000 0.0000
vn 1.0000 0.0000 0.0000
vn 0.0000 0.0000 -1.0000
usemtl Material
s off
f 1/1/1 5/2/1 7/3/1 3/4/1
f 4/5/2 3/6/2 7/7/2 8/8/2
f 8/9/3 7/10/3 5/11/3 6/12/3
f 6/13/4 2/14/4 4/15/4 8/16/4
f 2/17/5 1/18/5 3/19/5 4/20/5
f 6/21/6 5/22/6 1/23/6 2/24/6
